G75*
G70*
%OFA0B0*%
%FSLAX24Y24*%
%IPPOS*%
%LPD*%
%AMOC8*
5,1,8,0,0,1.08239X$1,22.5*
%
%ADD10C,0.0050*%
%ADD11R,0.0197X0.0220*%
%ADD12R,0.0315X0.0472*%
%ADD13R,0.0250X0.0472*%
%ADD14C,0.0004*%
%ADD15C,0.0433*%
%ADD16C,0.0787*%
%ADD17C,0.0200*%
%ADD18C,0.0100*%
%ADD19C,0.0340*%
D10*
X007831Y002725D02*
X007831Y003575D01*
X007981Y003725D01*
X007981Y004400D01*
X007831Y004550D01*
X007831Y004975D01*
X007831Y004974D02*
X007832Y005002D01*
X007835Y005030D01*
X007843Y005057D01*
X007854Y005082D01*
X007868Y005107D01*
X007885Y005129D01*
X007905Y005148D01*
X007927Y005165D01*
X007951Y005179D01*
X007977Y005189D01*
X008004Y005196D01*
X008031Y005200D01*
X012031Y005200D01*
X012060Y005199D01*
X012089Y005196D01*
X012117Y005189D01*
X012143Y005178D01*
X012169Y005165D01*
X012192Y005148D01*
X012214Y005129D01*
X012232Y005107D01*
X012249Y005084D01*
X012262Y005058D01*
X012272Y005031D01*
X012278Y005003D01*
X012282Y004975D01*
X012281Y004975D02*
X012281Y003525D01*
X011831Y003075D01*
X011831Y002725D01*
X011829Y002702D01*
X011824Y002679D01*
X011815Y002657D01*
X011802Y002637D01*
X011787Y002619D01*
X011769Y002604D01*
X011749Y002591D01*
X011727Y002582D01*
X011704Y002577D01*
X011681Y002575D01*
X007981Y002575D01*
X007958Y002577D01*
X007935Y002582D01*
X007913Y002591D01*
X007893Y002604D01*
X007875Y002619D01*
X007860Y002637D01*
X007847Y002657D01*
X007838Y002679D01*
X007833Y002702D01*
X007831Y002725D01*
D11*
X012057Y003640D03*
X012057Y004087D03*
X012057Y004490D03*
X012057Y004937D03*
D12*
X010914Y003263D03*
X010430Y003263D03*
X009233Y003263D03*
X008749Y003263D03*
D13*
X009635Y003263D03*
X010028Y003263D03*
D14*
X011424Y003191D02*
X011424Y003435D01*
X011426Y003455D01*
X011431Y003474D01*
X011440Y003492D01*
X011452Y003508D01*
X011467Y003521D01*
X011484Y003532D01*
X011502Y003539D01*
X011522Y003543D01*
X011542Y003543D01*
X011562Y003539D01*
X011580Y003532D01*
X011597Y003521D01*
X011612Y003508D01*
X011624Y003492D01*
X011633Y003474D01*
X011638Y003455D01*
X011640Y003435D01*
X011640Y003191D01*
X011638Y003171D01*
X011633Y003152D01*
X011624Y003134D01*
X011612Y003118D01*
X011597Y003105D01*
X011580Y003094D01*
X011562Y003087D01*
X011542Y003083D01*
X011522Y003083D01*
X011502Y003087D01*
X011484Y003094D01*
X011467Y003105D01*
X011452Y003118D01*
X011440Y003134D01*
X011431Y003152D01*
X011426Y003171D01*
X011424Y003191D01*
X011424Y004687D02*
X011424Y004931D01*
X011426Y004951D01*
X011431Y004970D01*
X011440Y004988D01*
X011452Y005004D01*
X011467Y005017D01*
X011484Y005028D01*
X011502Y005035D01*
X011522Y005039D01*
X011542Y005039D01*
X011562Y005035D01*
X011580Y005028D01*
X011597Y005017D01*
X011612Y005004D01*
X011624Y004988D01*
X011633Y004970D01*
X011638Y004951D01*
X011640Y004931D01*
X011640Y004687D01*
X011638Y004667D01*
X011633Y004648D01*
X011624Y004630D01*
X011612Y004614D01*
X011597Y004601D01*
X011580Y004590D01*
X011562Y004583D01*
X011542Y004579D01*
X011522Y004579D01*
X011502Y004583D01*
X011484Y004590D01*
X011467Y004601D01*
X011452Y004614D01*
X011440Y004630D01*
X011431Y004648D01*
X011426Y004667D01*
X011424Y004687D01*
X008239Y004687D02*
X008239Y004931D01*
X008237Y004951D01*
X008232Y004970D01*
X008223Y004988D01*
X008211Y005004D01*
X008196Y005017D01*
X008179Y005028D01*
X008161Y005035D01*
X008141Y005039D01*
X008121Y005039D01*
X008101Y005035D01*
X008083Y005028D01*
X008066Y005017D01*
X008051Y005004D01*
X008039Y004988D01*
X008030Y004970D01*
X008025Y004951D01*
X008023Y004931D01*
X008023Y004687D01*
X008025Y004667D01*
X008030Y004648D01*
X008039Y004630D01*
X008051Y004614D01*
X008066Y004601D01*
X008083Y004590D01*
X008101Y004583D01*
X008121Y004579D01*
X008141Y004579D01*
X008161Y004583D01*
X008179Y004590D01*
X008196Y004601D01*
X008211Y004614D01*
X008223Y004630D01*
X008232Y004648D01*
X008237Y004667D01*
X008239Y004687D01*
X008239Y003435D02*
X008239Y003191D01*
X008237Y003171D01*
X008232Y003152D01*
X008223Y003134D01*
X008211Y003118D01*
X008196Y003105D01*
X008179Y003094D01*
X008161Y003087D01*
X008141Y003083D01*
X008121Y003083D01*
X008101Y003087D01*
X008083Y003094D01*
X008066Y003105D01*
X008051Y003118D01*
X008039Y003134D01*
X008030Y003152D01*
X008025Y003171D01*
X008023Y003191D01*
X008023Y003435D01*
X008025Y003455D01*
X008030Y003474D01*
X008039Y003492D01*
X008051Y003508D01*
X008066Y003521D01*
X008083Y003532D01*
X008101Y003539D01*
X008121Y003543D01*
X008141Y003543D01*
X008161Y003539D01*
X008179Y003532D01*
X008196Y003521D01*
X008211Y003508D01*
X008223Y003492D01*
X008232Y003474D01*
X008237Y003455D01*
X008239Y003435D01*
D15*
X008131Y003197D02*
X008131Y003197D01*
X008131Y003433D01*
X008131Y003433D01*
X008131Y003197D01*
X008131Y004693D02*
X008131Y004693D01*
X008131Y004929D01*
X008131Y004929D01*
X008131Y004693D01*
X011532Y004693D02*
X011532Y004693D01*
X011532Y004929D01*
X011532Y004929D01*
X011532Y004693D01*
X011532Y003197D02*
X011532Y003197D01*
X011532Y003433D01*
X011532Y003433D01*
X011532Y003197D01*
D16*
X011281Y002525D03*
X010331Y002525D03*
X009331Y002525D03*
X008381Y002525D03*
D17*
X008749Y002958D02*
X008931Y002775D01*
X009081Y002775D01*
X009331Y002525D01*
X008749Y002958D02*
X008749Y003263D01*
X008183Y003263D01*
X008131Y003315D01*
X009233Y003263D02*
X009233Y003675D01*
X010331Y002525D02*
X010430Y002623D01*
X010430Y003263D01*
X010430Y003675D01*
X010914Y003263D02*
X011480Y003263D01*
X011532Y003315D01*
D18*
X011822Y003315D01*
X012057Y003551D01*
X012057Y003640D01*
X011995Y004025D02*
X012057Y004087D01*
X011995Y004025D02*
X010103Y004025D01*
X010031Y004225D02*
X009997Y004223D01*
X009964Y004218D01*
X009931Y004209D01*
X009900Y004197D01*
X009870Y004182D01*
X009842Y004164D01*
X009816Y004142D01*
X009792Y004118D01*
X009770Y004092D01*
X009752Y004064D01*
X009737Y004034D01*
X009725Y004003D01*
X009716Y003970D01*
X009711Y003937D01*
X009709Y003903D01*
X009710Y003903D02*
X009710Y003375D01*
X009635Y003328D01*
X009635Y003263D01*
X009953Y003325D02*
X009953Y003875D01*
X009955Y003898D01*
X009960Y003921D01*
X009969Y003943D01*
X009982Y003963D01*
X009997Y003981D01*
X010015Y003996D01*
X010035Y004009D01*
X010057Y004018D01*
X010080Y004023D01*
X010103Y004025D01*
X010031Y004225D02*
X011731Y004225D01*
X011997Y004490D01*
X012057Y004490D01*
X012057Y004937D02*
X011658Y004937D01*
X011532Y004811D01*
X011532Y004762D01*
X010028Y003278D02*
X009953Y003325D01*
X010028Y003278D02*
X010028Y003263D01*
D19*
X010430Y003675D03*
X009233Y003675D03*
M02*
